<?xml version="1.0" encoding="utf-8"?><svg xml:space="preserve" viewBox="0 0 100 100" y="0" x="0" xmlns="http://www.w3.org/2000/svg" id="Layer_1" version="1.1" width="280px" height="280px" xmlns:xlink="http://www.w3.org/1999/xlink" style="width:100%;height:100%;background-size:initial;background-repeat-y:initial;background-repeat-x:initial;background-position-y:initial;background-position-x:initial;background-origin:initial;background-color:initial;background-clip:initial;background-attachment:initial;animation-play-state:paused" ><g class="ldl-scale" style="transform-origin:50% 50%;transform:scale(0.8);animation-play-state:paused" ><path d="M41.984 33.612l-2.279-13.756-2.975-.893v14.009z" fill="#acbd81" style="fill:rgb(101, 101, 101);animation-play-state:paused" ></path>
<path d="M36.733 18.939l-26.666 7.236v18.699l26.666-11.926z" fill="#acbd81" style="fill:rgb(101, 101, 101);animation-play-state:paused" ></path>
<path d="M63.009 28.663v7.51l2.591-1.201z" fill="#acbd81" style="fill:rgb(101, 101, 101);animation-play-state:paused" ></path>
<path d="M63.009 36.173v-7.51l-.652-2.007-16.758-5.031 2.1 12.683z" fill="#acbd81" style="fill:rgb(101, 101, 101);animation-play-state:paused" ></path>
<path d="M68.562 33.6l21.268-9.854v-4.633l-24.334 7.021z" fill="#acbd81" style="fill:rgb(101, 101, 101);animation-play-state:paused" ></path>
<path d="M42.991 39.698l-6.261-.763v13.274l8.505 1.036z" fill="#acbd81" style="fill:rgb(101, 101, 101);animation-play-state:paused" ></path>
<path d="M36.733 38.911L10.067 50.836V64.11l26.666-11.925z" fill="#acbd81" style="fill:rgb(101, 101, 101);animation-play-state:paused" ></path>
<path d="M75.198 49.762l14.632-6.779V29.709L70.619 38.61z" fill="#acbd81" style="fill:rgb(101, 101, 101);animation-play-state:paused" ></path>
<path d="M48.707 40.394l2.243 13.547 12.059 1.469V42.135z" fill="#acbd81" style="fill:rgb(101, 101, 101);animation-play-state:paused" ></path>
<path d="M63.009 55.41l9.228-4.276-4.58-11.152-4.648 2.153z" fill="#acbd81" style="fill:rgb(101, 101, 101);animation-play-state:paused" ></path>
<path d="M51.454 56.984l3.588 21.662 7.967 2.391V58.391z" fill="#acbd81" style="fill:rgb(101, 101, 101);animation-play-state:paused" ></path>
<path d="M63.009 58.391v22.646l19.229-5.547-8.973-21.851z" fill="#acbd81" style="fill:rgb(101, 101, 101);animation-play-state:paused" ></path>
<path d="M10.067 67.092v13.269l26.666-7.236V55.166z" fill="#9ec4d2" style="fill:rgb(101, 101, 101);animation-play-state:paused" ></path>
<path d="M36.73 55.19v17.959l12.418 3.728-3.409-20.589z" fill="#9ec4d2" style="fill:rgb(101, 101, 101);animation-play-state:paused" ></path>
<path d="M85.39 74.58l4.44-1.281V45.964l-13.603 6.303z" fill="#acbd81" style="fill:rgb(101, 101, 101);animation-play-state:paused" ></path>
<path d="M36.73 52.209v2.981l9.009 1.098-.504-3.043z" fill="#e0e0e0" style="fill:rgb(224, 224, 224);animation-play-state:paused" ></path>
<path d="M36.733 52.185L10.067 64.11v2.982l26.666-11.926z" fill="#e0e0e0" style="fill:rgb(224, 224, 224);animation-play-state:paused" ></path>
<path d="M76.227 52.267l13.603-6.303v-2.981l-14.632 6.779z" fill="#e0e0e0" style="fill:rgb(224, 224, 224);animation-play-state:paused" ></path>
<path d="M50.95 53.941l.504 3.043 11.555 1.407V55.41z" fill="#e0e0e0" style="fill:rgb(224, 224, 224);animation-play-state:paused" ></path>
<path d="M63.009 55.41v2.981l10.256-4.752-1.028-2.505z" fill="#e0e0e0" style="fill:rgb(224, 224, 224);animation-play-state:paused" ></path>
<path d="M42.991 39.698l2.244 13.547 5.715.696-2.243-13.547z" fill="#f0ae6b" style="fill:rgb(173, 173, 173);animation-play-state:paused" ></path>
<path d="M47.699 34.308l-2.1-12.683-5.894-1.769 2.279 13.756z" fill="#f0ae6b" style="fill:rgb(173, 173, 173);animation-play-state:paused" ></path>
<path d="M45.739 56.288l3.409 20.589 5.894 1.769-3.588-21.662z" fill="#f0ae6b" style="fill:rgb(173, 173, 173);animation-play-state:paused" ></path>
<path d="M45.235 53.245l.504 3.043 5.715.696-.504-3.043z" fill="#f0ae6b" style="fill:rgb(173, 173, 173);animation-play-state:paused" ></path>
<path d="M65.6 34.972l2.962-1.372-3.066-7.466-2.487.717v1.812z" fill="#e0e0e0" style="fill:rgb(224, 224, 224);animation-play-state:paused" ></path>
<path d="M63.009 26.851l-.652-.195.652 2.007z" fill="#e0e0e0" style="fill:rgb(224, 224, 224);animation-play-state:paused" ></path>
<path d="M73.265 53.639l8.973 21.851 3.152-.91-9.163-22.313z" fill="#e0e0e0" style="fill:rgb(224, 224, 224);animation-play-state:paused" ></path>
<path d="M72.237 51.134l2.961-1.372-4.579-11.152-2.962 1.372z" fill="#e0e0e0" style="fill:rgb(224, 224, 224);animation-play-state:paused" ></path>
<path d="M73.265 53.639l2.962-1.372-1.029-2.505-2.961 1.372z" fill="#e0e0e0" style="fill:rgb(224, 224, 224);animation-play-state:paused" ></path>
<path d="M36.733 32.948L10.067 44.874v5.962l26.666-11.925z" fill="#f0ae6b" style="fill:rgb(173, 173, 173);animation-play-state:paused" ></path>
<path d="M41.984 33.612l-5.254-.64v5.963l6.261.763z" fill="#f0ae6b" style="fill:rgb(173, 173, 173);animation-play-state:paused" ></path>
<path d="M70.619 38.61l19.211-8.901v-5.963L68.562 33.6z" fill="#f0ae6b" style="fill:rgb(173, 173, 173);animation-play-state:paused" ></path>
<path d="M63.009 42.135v-5.962l-15.31-1.865 1.008 6.086z" fill="#f0ae6b" style="fill:rgb(173, 173, 173);animation-play-state:paused" ></path>
<path d="M67.657 39.982l-2.057-5.01-2.591 1.201v5.962z" fill="#f0ae6b" style="fill:rgb(173, 173, 173);animation-play-state:paused" ></path>
<path d="M48.707 40.394l-1.008-6.086-5.715-.696 1.007 6.086z" fill="#f0ae6b" style="fill:rgb(173, 173, 173);animation-play-state:paused" ></path>
<path d="M62.357 26.656l-16.758-5.031-5.894-1.769-2.975-.893V73.149l12.418 3.728 5.894 1.769 7.967 2.391V26.851z" opacity=".2" style="animation-play-state:paused" ></path>
<path d="M67.657 39.982l2.962-1.372-2.057-5.01-2.962 1.372z" fill="#f0ae6b" style="fill:rgb(173, 173, 173);animation-play-state:paused" ></path>
<metadata xmlns:d="https://loading.io/stock/" style="animation-play-state:paused" ><d:name style="animation-play-state:paused" >map</d:name>
<d:tags style="animation-play-state:paused" >map,atlas,direction,location,address,position,gps,tour guide,road sign,way</d:tags>
<d:license style="animation-play-state:paused" >by</d:license>
<d:slug style="animation-play-state:paused" >s6oyp2</d:slug></metadata></g><!-- generated by https://loading.io/ --></svg>